<?xml version="1.0" encoding="UTF-8"?><svg id="ARTWORK" xmlns="http://www.w3.org/2000/svg" viewBox="0 0 1463.75 261.18"><defs><style>.cls-1{fill:#00c4b4;}.cls-2{fill:#fff;}.cls-3{fill:#dadada;}</style></defs><g><polyline class="cls-2" points="150.68 86.93 175.56 130.46 150.67 174 50.24 174 0 87 50.24 0 150.67 0 125.53 43.53 75.35 43.53 50.25 87 75.35 130.46 125.53 130.46 150.57 86.94"/><polygon class="cls-3" points="150.57 86.94 175.69 43.53 200.78 87.06 175.56 130.47 150.57 86.94"/><g><path class="cls-2" d="M1463.75,63.1v-19.62h-33.85V15.03h-19.62V109.68c0,11.38,9.13,20.67,20.67,20.67h32.8v-19.62h-32.8c-.6,0-1.05-.45-1.05-1.05V63.1h33.85Z"/><path class="cls-2" d="M1329.48,110.73c-.6,0-1.05-.45-1.05-1.05v-45.53c0-.6,.45-1.05,1.05-1.05h67.25v-19.62h-67.25c-11.38,0-20.67,9.29-20.67,20.67v45.53c0,11.38,9.29,20.67,20.67,20.67h67.55v-19.62h-67.55Z"/><path class="cls-2" d="M1295.56,96.8v-32.65c0-11.38-9.29-20.67-20.67-20.67h-46.88c-11.38,0-20.67,9.29-20.67,20.67v45.53c0,11.38,9.28,20.67,20.67,20.67h67.55v-19.62h-67.55c-.6,0-1.04-.45-1.04-1.05v-12.88h68.6Zm-68.6-32.65c0-.6,.45-1.05,1.04-1.05h46.88c.6,0,1.05,.45,1.05,1.05v12.88h-48.98v-12.88Z"/><path class="cls-2" d="M1173.42,43.48h-67.55v86.87h19.62V64.15c0-.6,.45-1.05,1.05-1.05h46.88c.6,0,1.05,.45,1.05,1.05v66.2h19.62V64.15c0-11.38-9.28-20.67-20.67-20.67"/><path class="cls-2" d="M1071.95,43.48h-67.55v86.87h19.62V64.15c0-.6,.45-1.05,1.05-1.05h46.88c.6,0,1.05,.45,1.05,1.05v66.2h19.62V64.15c0-11.38-9.29-20.67-20.67-20.67"/><path class="cls-2" d="M970.48,43.48h-46.88c-11.39,0-20.67,9.29-20.67,20.67v45.53c0,11.38,9.28,20.67,20.67,20.67h46.88c11.38,0,20.67-9.29,20.67-20.67v-45.53c0-11.38-9.29-20.67-20.67-20.67Zm1.05,66.2c0,.6-.45,1.05-1.05,1.05h-46.88c-.6,0-1.05-.45-1.05-1.05v-45.53c0-.6,.45-1.05,1.05-1.05h46.88c.6,0,1.05,.45,1.05,1.05v45.53Z"/><path class="cls-2" d="M822.13,110.73c-.6,0-1.05-.45-1.05-1.05v-45.53c0-.6,.45-1.05,1.05-1.05h67.25v-19.62h-67.25c-11.38,0-20.67,9.29-20.67,20.67v45.53c0,11.38,9.29,20.67,20.67,20.67h67.55v-19.62h-67.55Z"/><path class="cls-2" d="M723.28,43.48h-47.93V15.03h-19.62v115.32h19.62V64.15c0-.6,.45-1.05,1.05-1.05h46.88c.6,0,1.05,.45,1.05,1.05v66.2h19.62V64.15c0-11.38-9.44-20.67-20.67-20.67"/><path class="cls-2" d="M642.11,64.15c0-11.38-9.14-20.67-20.67-20.67h-46.88c-11.38,0-20.67,9.29-20.67,20.67v11.98c0,11.38,9.28,20.67,20.67,20.67h46.88c.6,0,1.05,.3,1.05,.9v11.98c0,.6-.45,1.05-1.05,1.05h-46.88c-.6,0-1.05-.45-1.05-1.05v-3.74h-19.62v3.74c0,11.38,9.28,20.67,20.67,20.67h46.88c11.53,0,20.67-9.29,20.67-20.67v-11.98c0-11.38-9.14-20.67-20.67-20.67h-46.88c-.6,0-1.05-.3-1.05-.9v-11.98c0-.6,.45-1.05,1.05-1.05h46.88c.6,0,1.05,.45,1.05,1.05v3.74h19.62v-3.74Z"/><path class="cls-2" d="M519.6,43.48h-67.55v19.62h67.55c.6,0,1.05,.45,1.05,1.05v12.88h-68.6v32.65c0,11.38,9.28,20.67,20.67,20.67h67.55V64.15c0-11.38-9.29-20.67-20.67-20.67Zm1.05,67.25h-47.93c-.6,0-1.05-.45-1.05-1.05v-12.88h48.98v13.93Z"/><path class="cls-2" d="M370.88,110.73c-.6,0-1.05-.45-1.05-1.05v-45.53c0-.6,.45-1.05,1.05-1.05h67.25v-19.62h-67.25c-11.38,0-20.67,9.29-20.67,20.67v45.53c0,11.38,9.29,20.67,20.67,20.67h67.55v-19.62h-67.55Z"/></g><polygon class="cls-1" points="125.53 130.47 100.37 87 150.55 0 250.97 0 301.21 87 250.97 174 150.42 174 175.56 130.47 225.86 130.47 250.97 87 225.86 43.53 175.69 43.53 125.53 130.47"/></g><g><polygon class="cls-1" points="1117.5 154.84 1463.75 154.84 1463.75 261.18 1055.7 261.18 1117.5 154.84"/><g><path class="cls-2" d="M1157.4,177.17l15.23,44.11,15.31-44.11h16.36l-23.84,60.99h-16.53l-23.67-60.99h17.14Z"/><path class="cls-2" d="M1245.88,227.37h-26.36l-4.26,10.79h-16.36l26.19-60.99h16.36l25.58,60.99h-16.97l-4.18-10.79Zm-4.7-12.18l-8.35-21.75-8.53,21.75h16.88Z"/><path class="cls-2" d="M1298.08,225.28c7.05,0,11.92-4.79,11.92-12.7v-35.41h15.92v35.41c0,16.1-10.79,26.28-27.93,26.28s-28.28-10.18-28.28-26.28v-35.41h15.92v35.41c0,7.83,5.22,12.7,12.44,12.7Z"/><path class="cls-2" d="M1352.63,177.17v47.42h25.84v13.57h-41.76v-60.99h15.92Z"/><path class="cls-2" d="M1432.67,177.17v13.14h-18.27v47.85h-15.92v-47.85h-18.1v-13.14h52.29Z"/></g></g><g><polygon class="cls-1" points="746.22 154.84 1092.48 154.84 1030.89 261.18 684.43 261.18 746.22 154.84"/><g><path class="cls-2" d="M841.6,227.72h-26.36l-4.26,10.79h-16.36l26.19-60.99h16.36l25.58,60.99h-16.97l-4.18-10.79Zm-4.7-12.18l-8.35-21.75-8.53,21.75h16.88Z"/><path class="cls-2" d="M908.68,177.52v13.14h-18.27v47.85h-15.92v-47.85h-18.1v-13.14h52.29Z"/><path class="cls-2" d="M932.52,177.52l16.18,35.59,16.18-35.59h17.4v60.99h-14.09l-.09-38.63-14.18,32.54h-10.44l-14.18-32.54v38.63h-14.18v-60.99h17.4Z"/></g></g></svg>